# xmcd
#
# Track frame offsets:
#   150
#   16925
#   30538
#   47758
#   63505
#   82148
#   98355
#   113638
#   133700
#   149330
#
# Disc length: 2278 seconds
#
# Revision: 2
# Processed by: cddbd v1.5.1PL0 Copyright (c) Steve Scherf et al.
# Submitted via: Media_Universe 3.0
#
DISCID=7e08e40a
DTITLE=Confederate Railroad - Notorious
DYEAR=1900
DGENRE=Country
TTITLE0=Daddy Never Was The Cadillac Kind
TTITLE1=Summer In Dixie
TTITLE2=I Am Just A Rebel
TTITLE3=Elvis And Andy
TTITLE4=Notorious
TTITLE5=Redneck Romeo
TTITLE6=Hunger Pains
TTITLE7=Roll The Dice
TTITLE8=Move Over Madonna
TTITLE9=Three Verses
EXTD=
EXTT0=
EXTT1=
EXTT2=
EXTT3=
EXTT4=
EXTT5=
EXTT6=
EXTT7=
EXTT8=
EXTT9=
PLAYORDER=
